<?xml version="1.0" standalone="no"?>
<!DOCTYPE svg PUBLIC "-//W3C//DTD SVG 20010904//EN"
 "http://www.w3.org/TR/2001/REC-SVG-20010904/DTD/svg10.dtd">
<svg version="1.0" xmlns="http://www.w3.org/2000/svg"
 width="595.000000pt" height="640.000000pt" viewBox="0 0 595.000000 640.000000"
 preserveAspectRatio="xMidYMid meet">
<metadata>
Created by potrace 1.16, written by Peter Selinger 2001-2019
</metadata>
<g transform="translate(0.000000,640.000000) scale(0.100000,-0.100000)"
fill="#000000" stroke="none">
<path d="M1662 6298 c-1 -78 -5 -108 -14 -109 -7 -1 -2 -5 12 -9 l25 -8 -25
-1 c-15 -1 -32 -7 -40 -13 -12 -11 -12 -10 -1 5 12 15 12 17 -3 11 -15 -6 -20
-18 -17 -37 1 -5 -3 -6 -9 -2 -5 3 -13 -1 -16 -10 -9 -21 33 -65 60 -64 20 2
20 2 -1 6 -12 2 -27 11 -35 20 -12 15 -11 15 9 3 29 -19 101 4 109 34 2 12 3
80 2 151 l-4 130 -2 -142 c-1 -78 -5 -144 -9 -146 -5 -3 -7 60 -5 139 2 96 0
144 -7 144 -7 0 -12 -40 -13 -107 l-2 -108 -6 110 -6 110 -2 -107z"/>
<path d="M5600 6163 l0 -157 30 29 c38 36 40 47 3 14 l-28 -24 24 27 c13 15
28 25 33 22 14 -9 40 17 34 33 -3 8 -1 11 4 8 6 -3 13 1 16 10 9 22 -45 78
-68 71 -16 -4 -18 4 -18 60 0 50 -3 64 -15 64 -13 0 -15 -24 -15 -157z"/>
<path d="M4693 6114 c-24 -14 -43 -27 -43 -30 0 -3 6 -2 13 2 8 6 8 3 -1 -9
-13 -15 -16 -15 -43 5 -37 27 -38 36 -1 14 l27 -17 -28 25 c-16 15 -40 26 -56
26 -30 0 -71 -36 -71 -63 0 -9 -3 -17 -7 -17 -5 0 -19 -16 -32 -35 -19 -28
-21 -38 -11 -50 7 -8 16 -13 20 -10 4 2 18 -7 30 -20 13 -14 18 -25 12 -25 -7
0 -12 3 -12 8 0 11 -71 12 -93 0 -15 -8 -18 -7 -11 4 19 31 -29 -18 -58 -59
-29 -43 -35 -90 -11 -86 14 3 38 -35 29 -45 -3 -3 -6 0 -6 7 0 7 -5 9 -12 5
-7 -5 -5 -11 7 -21 11 -7 16 -13 12 -13 -5 0 -21 10 -37 21 -20 16 -36 20 -57
15 -23 -5 -25 -4 -10 5 10 6 30 8 45 5 26 -5 26 -5 4 6 -31 16 -71 -4 -85 -42
-8 -21 -18 -30 -33 -30 -12 0 -33 -9 -48 -21 -37 -29 -35 -70 6 -104 l31 -27
-17 -47 c-9 -26 -21 -95 -25 -152 -9 -104 -29 -173 -68 -236 l-19 -32 -22 50
c-11 28 -25 48 -31 45 -5 -4 -13 -1 -17 5 -4 8 -3 9 4 5 19 -12 14 7 -14 47
-14 21 -28 36 -31 33 -4 -3 -29 16 -57 42 -28 26 -62 55 -76 65 l-25 18 25
-12 c13 -7 48 -35 77 -62 29 -27 53 -47 53 -44 0 10 -99 100 -133 121 -59 36
-125 66 -143 66 -11 0 8 -11 40 -25 32 -13 64 -29 70 -35 6 -6 -14 0 -44 14
-82 38 -152 49 -265 43 -55 -3 -111 -9 -125 -12 -22 -5 -23 -4 -5 5 16 8 14 9
-14 5 -49 -7 -144 -53 -136 -65 3 -5 0 -7 -7 -5 -16 6 -95 -44 -124 -77 -19
-22 -19 -23 1 -8 11 8 -2 -9 -30 -38 -27 -29 -51 -52 -54 -52 -3 0 13 19 34
41 22 23 35 40 28 38 -15 -5 -113 -119 -113 -132 0 -4 5 -5 12 -1 7 4 8 3 4
-5 -4 -6 -12 -9 -17 -5 -5 3 -28 -33 -50 -80 l-41 -85 0 -273 c0 -217 3 -281
15 -313 35 -94 38 -100 46 -86 6 10 10 9 14 -4 4 -10 3 -14 -4 -9 -28 17 35
-110 67 -137 16 -12 17 -12 9 1 -8 13 -7 13 8 1 18 -15 23 -26 7 -16 -5 3 -10
1 -10 -5 0 -16 91 -111 101 -105 4 3 11 0 15 -6 5 -8 3 -9 -7 -4 -12 8 -12 6
0 -9 8 -9 20 -15 27 -12 7 2 20 -5 31 -17 l18 -22 -25 20 c-21 16 -20 14 4
-13 31 -33 58 -45 35 -14 -11 15 -11 15 1 4 8 -7 15 -18 15 -24 0 -6 6 -13 14
-16 9 -3 11 0 6 8 -4 7 5 5 24 -4 35 -19 43 -32 9 -16 -45 22 13 -20 64 -46
48 -25 87 -33 58 -13 -11 8 -9 9 10 3 14 -4 54 -15 90 -26 59 -16 47 -18 -26
-3 -23 4 -25 4 -9 -4 11 -5 28 -12 38 -15 22 -7 20 -18 -35 -140 -21 -49 -37
-95 -34 -103 3 -8 2 -12 -2 -9 -11 6 -84 -142 -76 -155 3 -5 0 -8 -8 -7 -8 2
-13 -7 -13 -22 0 -14 -5 -25 -10 -25 -16 0 -35 -15 -35 -27 0 -6 7 -5 18 3 9
7 6 1 -7 -14 -27 -30 -41 -37 -20 -9 7 9 -2 3 -21 -15 -19 -18 -46 -36 -60
-42 -15 -6 -19 -10 -9 -10 9 -1 29 9 45 21 l29 22 -19 -22 c-29 -33 -87 -48
-135 -34 -21 7 -45 20 -52 29 -13 16 -12 16 11 0 36 -25 47 -21 14 6 -16 12
-32 21 -37 19 -11 -3 -39 67 -33 81 2 7 5 3 5 -7 1 -11 3 -17 6 -14 4 3 1 35
-5 71 -9 50 -9 83 0 137 11 64 14 71 38 76 54 11 97 31 94 43 -1 7 2 10 7 6 6
-3 15 4 21 15 24 45 -46 120 -136 146 -101 29 -236 -10 -310 -89 l-39 -42 40
37 c40 37 116 78 145 78 8 0 -12 -11 -45 -25 -40 -16 -74 -39 -101 -69 l-42
-46 -18 28 c-15 24 -15 25 -1 13 9 -7 17 -9 17 -3 0 11 -31 39 -37 34 -3 -2
-8 0 -11 4 -4 4 -1 4 7 -1 9 -5 12 -3 9 6 -3 8 -10 14 -15 14 -6 0 -15 4 -20
9 -5 5 -2 6 6 1 9 -5 12 -3 9 6 -3 8 -10 14 -16 14 -5 0 -14 4 -19 9 -5 5 -3
6 5 2 22 -13 12 10 -15 35 -20 18 -24 19 -13 4 15 -20 14 -20 -8 -1 -23 20
-30 32 -12 21 20 -12 10 11 -21 48 -17 20 -35 35 -40 31 -5 -3 -8 0 -7 8 2 7
-2 12 -8 11 -6 -1 -53 42 -105 95 -52 53 -64 68 -26 32 37 -35 67 -60 67 -54
0 6 -33 41 -74 77 -72 65 -95 81 -80 55 4 -7 -2 -4 -14 6 -26 23 -30 34 -4 15
15 -13 16 -12 3 4 -46 58 -301 229 -501 335 -99 52 -178 82 -110 42 42 -26 26
-21 -58 15 -34 15 -61 30 -58 32 2 3 18 -3 36 -12 18 -9 34 -14 37 -12 6 6
-102 56 -136 63 -19 4 -14 -1 14 -15 46 -24 39 -23 -68 14 -43 15 -76 29 -74
31 2 2 23 -3 47 -11 24 -8 45 -13 47 -11 11 11 -178 69 -232 71 -33 2 -71 8
-85 14 l-25 11 27 -5 c73 -14 80 -14 38 0 -117 40 -201 57 -300 61 -58 2 -127
8 -155 13 -49 10 -49 10 15 5 36 -3 83 -8 105 -11 22 -3 38 -3 35 0 -3 3 -73
16 -155 28 -117 17 -204 22 -395 24 -228 2 -233 1 -65 -4 l180 -7 -182 -2
c-155 -2 -183 -4 -183 -17 0 -12 16 -15 73 -17 l72 -2 -75 -5 -75 -6 95 -8
c52 -4 160 -7 240 -6 80 1 165 -3 190 -9 42 -10 40 -10 -30 -6 -68 4 -63 2 60
-21 183 -33 230 -39 145 -16 -38 10 -61 19 -50 19 27 0 165 -35 142 -37 -25
-1 -56 -21 -99 -61 -29 -26 -38 -42 -38 -67 0 -30 -3 -33 -31 -33 -23 0 -42
-10 -70 -39 -33 -33 -39 -45 -39 -81 0 -36 6 -48 40 -83 39 -38 40 -41 25 -63
-25 -38 -19 -80 16 -116 18 -18 25 -24 18 -13 -14 19 -13 19 11 2 28 -19 81
-22 113 -6 22 10 22 10 2 -6 -13 -11 -34 -15 -62 -13 -23 2 -38 -1 -34 -5 14
-14 65 -11 95 5 28 15 30 14 63 -23 19 -21 47 -40 63 -44 56 -12 128 47 135
111 5 38 4 38 -4 6 -12 -45 -23 -54 -15 -11 10 49 23 62 57 55 36 -7 63 7 87
47 34 55 27 94 -25 144 -25 24 -51 41 -57 37 -6 -4 4 -15 25 -25 20 -11 39
-24 42 -29 4 -6 -8 -2 -27 10 -18 11 -42 20 -52 20 -18 0 -18 2 4 25 13 14 27
44 31 68 6 39 7 39 8 9 0 -18 -4 -43 -10 -55 -10 -22 -10 -22 6 -2 18 23 17
100 -2 100 -6 0 -15 4 -20 9 -5 5 -3 6 5 2 6 -4 12 -3 12 2 0 13 -25 33 -33
26 -3 -3 -13 -2 -22 4 -16 8 -16 9 -1 15 10 4 15 3 12 -1 -3 -5 10 -8 28 -9
18 0 79 -19 137 -42 117 -46 150 -53 74 -17 -27 14 -48 25 -45 25 8 1 160 -62
185 -77 34 -19 7 -13 -35 8 -22 11 -43 20 -47 20 -11 -1 140 -79 152 -79 6 0
-2 7 -17 15 -16 8 -28 16 -28 19 0 6 114 -45 125 -57 6 -6 -5 -3 -23 7 -62 31
-43 9 25 -28 36 -21 68 -35 70 -33 3 3 -9 12 -26 21 -17 8 -31 18 -31 21 0 3
18 -5 40 -17 21 -12 37 -26 35 -30 -3 -4 12 -18 32 -30 21 -13 48 -29 60 -37
13 -8 23 -12 23 -9 0 3 -23 19 -50 37 -28 18 -50 34 -50 37 0 5 2 4 108 -64
45 -30 80 -58 77 -63 -3 -5 11 -20 32 -33 21 -13 44 -32 52 -41 18 -22 37 -21
20 2 -11 14 -10 13 9 -2 24 -21 29 -31 10 -20 -7 4 12 -16 42 -44 53 -50 78
-65 64 -39 -4 6 30 -24 75 -68 44 -44 81 -82 81 -85 0 -2 -35 29 -77 70 l-76
75 88 -97 c48 -54 91 -95 95 -93 4 3 14 -3 21 -13 13 -15 12 -16 -4 -3 -30 24
-18 -4 15 -35 18 -16 26 -20 18 -9 -15 20 -14 20 8 1 23 -20 30 -32 11 -20 -7
4 -10 1 -7 -7 3 -8 10 -13 16 -12 6 2 21 -12 33 -29 13 -17 18 -28 11 -24 -16
10 -15 0 4 -29 9 -14 20 -23 24 -20 5 3 12 0 16 -6 4 -8 3 -9 -4 -5 -18 11
-15 -3 9 -40 11 -19 25 -32 29 -29 5 3 12 0 16 -6 4 -8 3 -9 -4 -5 -7 4 -12 5
-12 1 0 -15 102 -205 108 -201 4 2 5 -33 2 -77 l-4 -82 -6 75 c-4 41 -7 64 -8
50 -1 -14 -7 -101 -12 -195 -15 -253 -34 -365 -76 -446 -9 -19 -49 -68 -88
-109 -39 -41 -60 -66 -46 -55 16 12 12 5 -9 -18 -37 -39 -57 -52 -25 -15 16
18 17 21 2 15 -9 -3 -19 -1 -21 6 -2 7 -3 4 -2 -5 2 -10 -2 -21 -7 -25 -8 -4
-9 15 -4 62 6 58 3 79 -16 133 -12 35 -31 68 -41 74 -23 12 -24 11 -32 -27 -4
-19 -3 -25 2 -17 7 9 13 2 20 -23 12 -37 8 -49 -5 -15 -4 10 -7 -29 -7 -88 0
-59 -4 -125 -9 -146 -7 -31 -6 -37 4 -31 28 17 -2 -15 -33 -35 l-32 -22 30 27
30 27 -33 -18 c-18 -11 -41 -28 -50 -39 -16 -19 -16 -19 3 -5 20 15 20 14 1
-8 -20 -23 -32 -30 -21 -12 10 17 -12 11 -26 -7 -10 -11 -10 -14 -1 -9 18 11
15 1 -5 -15 -11 -10 -14 -10 -9 -1 22 36 -25 0 -129 -99 l-115 -112 -78 5
c-61 3 -94 12 -146 36 -38 18 -71 30 -75 27 -4 -2 -28 17 -52 43 l-44 47 49
-45 50 -45 -43 50 c-24 27 -47 50 -51 50 -5 0 -12 4 -17 9 -5 5 -3 6 4 2 15
-9 17 3 3 24 -9 13 -10 13 -11 0 -2 -31 -27 67 -27 105 0 33 2 30 9 -19 12
-80 18 -81 18 -5 -1 100 7 174 18 174 11 0 63 58 63 70 0 5 -10 0 -22 -11 -13
-10 -10 -4 6 14 30 32 50 45 26 17 -7 -8 -8 -15 -2 -15 11 0 30 21 30 33 0 5
4 12 8 15 4 4 4 1 0 -5 -10 -17 -6 -16 45 8 36 16 38 19 14 14 -16 -3 -25 -2
-18 2 18 13 205 8 231 -6 12 -7 20 -16 18 -20 -6 -8 16 -31 44 -46 10 -5 8 1
-5 16 -19 23 -18 23 5 -1 23 -23 25 -32 22 -90 -6 -110 -7 -118 -13 -114 -4 2
-13 -4 -20 -12 -8 -9 -31 -28 -52 -41 -46 -29 -53 -44 -37 -83 15 -37 31 -37
88 -4 25 15 41 20 37 13 -5 -8 1 -5 13 5 23 20 31 42 10 30 -7 -4 -8 -3 -4 5
4 6 11 9 16 6 17 -11 42 44 47 104 7 69 -23 170 -64 218 -14 15 -21 21 -17 13
4 -8 -15 6 -42 31 -68 63 -125 83 -216 77 -41 -3 -64 -2 -53 3 13 5 15 8 5 8
-30 1 -101 -39 -150 -85 -46 -43 -67 -75 -38 -58 8 4 10 3 5 -2 -5 -5 -13 -9
-19 -9 -6 0 -22 -22 -37 -50 -37 -71 -42 -182 -11 -268 31 -86 69 -159 79
-152 5 2 15 -3 22 -13 13 -15 12 -16 -3 -3 -10 7 -18 9 -18 4 0 -16 36 -44 45
-36 4 5 5 3 2 -3 -16 -28 135 -126 224 -146 30 -6 55 -13 57 -14 2 -1 -2 -12
-8 -25 -17 -31 -20 -302 -4 -354 7 -22 20 -58 29 -79 13 -31 19 -36 27 -25 8
11 9 10 4 -5 -4 -11 0 -24 11 -33 10 -8 12 -12 6 -8 -18 9 -16 -3 8 -41 11
-19 25 -32 29 -29 5 3 12 0 16 -6 4 -8 3 -9 -4 -5 -18 11 -14 -10 5 -25 14
-12 16 -12 8 0 -5 9 -4 12 3 7 6 -4 9 -13 6 -21 -3 -8 11 -30 33 -52 21 -22
29 -28 18 -14 -13 18 -8 15 18 -8 36 -34 52 -56 22 -31 -8 7 -15 8 -15 3 0
-17 159 -157 225 -198 28 -17 28 -17 -5 14 l-35 32 40 -27 c42 -29 70 -52 48
-40 -7 4 -13 5 -13 2 0 -8 73 -56 85 -56 5 0 -5 10 -22 21 -46 29 -41 34 7 7
38 -22 53 -41 29 -35 -16 3 -41 -73 -35 -108 3 -16 2 -52 -3 -80 -8 -45 -9
-47 -11 -15 l-2 35 -8 -28 c-5 -16 -11 -89 -13 -163 l-4 -134 23 0 c23 0 24 4
26 68 l1 67 7 -50 7 -50 1 43 c4 84 66 326 92 355 4 5 21 2 38 -7 38 -20 66
-21 32 -1 -37 21 -12 17 35 -6 24 -12 30 -18 16 -15 -41 8 -10 -9 74 -41 74
-28 189 -56 140 -33 -31 14 2 11 65 -5 l55 -15 -50 4 c-41 4 -34 1 37 -16 l87
-21 0 -146 c1 -80 6 -163 12 -185 22 -81 86 -190 152 -258 66 -67 193 -148
232 -147 15 0 13 3 -10 14 -41 19 -28 18 28 -1 37 -13 75 -15 180 -11 72 2
143 7 157 11 21 5 22 5 5 -3 -20 -10 -20 -10 1 -10 27 -1 187 77 180 88 -3 5
11 21 32 36 l37 26 -35 -30 c-19 -17 -29 -31 -23 -31 6 0 50 37 98 83 64 60
88 90 90 111 2 16 9 34 15 40 10 8 10 5 1 -14 l-12 -25 20 25 c33 40 63 108
57 128 -4 11 -2 30 4 43 10 23 10 22 6 -6 -5 -29 -5 -29 10 5 9 19 21 64 26
100 14 90 4 353 -16 410 l-16 45 5 -45 c5 -53 -8 -19 -18 45 -5 30 -4 35 3 20
8 -16 9 -15 5 10 -7 36 -61 155 -71 155 -3 0 -4 -7 0 -15 8 -22 -2 -18 -15 6
-8 15 -8 19 0 15 19 -12 12 9 -19 56 -30 45 -75 92 -55 58 4 -8 -4 -4 -18 9
-15 14 -27 27 -27 29 0 3 9 -3 20 -13 41 -37 18 3 -28 48 -47 46 -77 64 -51
30 7 -10 1 -7 -14 6 -30 27 -37 41 -9 20 9 -7 6 -1 -7 14 -27 30 -52 38 -30
10 13 -16 12 -17 -3 -4 -10 7 -16 17 -13 21 6 10 -104 75 -112 66 -4 -3 -2 -6
3 -6 6 0 19 -7 30 -15 15 -12 11 -12 -19 2 -20 9 -33 19 -28 22 10 7 9 151 -1
144 -5 -2 -8 -32 -8 -65 0 -86 -7 -69 -13 30 l-4 83 33 -32 c19 -18 32 -35 29
-38 -7 -6 25 -41 38 -41 5 0 3 8 -4 18 -7 9 -1 6 14 -7 30 -27 37 -41 10 -20
-10 7 -5 -1 11 -19 33 -36 60 -44 30 -9 l-19 22 22 -19 c12 -10 21 -23 20 -28
-1 -6 4 -13 12 -16 10 -3 11 0 5 9 -7 12 -5 12 9 0 20 -16 23 -26 5 -15 -10 6
-10 4 0 -8 16 -20 133 -100 138 -95 3 3 -18 19 -45 36 -27 18 -55 39 -62 48
-8 8 17 -6 54 -31 36 -26 66 -52 64 -57 -2 -11 172 -123 180 -116 2 3 -17 17
-42 31 -25 15 -45 29 -45 32 0 5 48 -21 92 -51 10 -7 15 -15 10 -20 -4 -4 1
-5 11 -2 10 4 16 3 12 -3 -5 -8 104 -71 122 -70 4 1 -13 12 -39 26 -82 42 -53
34 52 -14 55 -25 98 -48 96 -50 -2 -2 -18 4 -36 13 -18 9 -34 14 -37 12 -5 -5
91 -51 129 -61 23 -7 23 -7 -2 9 -18 12 -19 14 -5 10 103 -35 136 -48 132 -51
-2 -3 -17 0 -32 6 -15 6 -30 9 -32 6 -6 -6 156 -66 175 -65 10 0 -9 10 -41 21
-92 32 -61 30 38 -2 50 -17 74 -28 55 -25 l-35 5 40 -16 c81 -31 230 -65 265
-60 19 3 53 1 75 -4 36 -8 35 -9 -15 -4 -78 8 -60 -1 41 -20 190 -35 311 -46
554 -50 138 -2 214 -1 170 3 l-80 7 78 2 c60 2 77 5 77 16 0 11 -14 16 -47 19
l-48 3 48 2 c26 1 47 6 47 10 0 9 -235 22 -475 28 -66 2 -136 8 -155 13 l-35
11 40 -5 c132 -14 150 -14 75 0 -159 29 -359 77 -463 111 -59 20 -115 33 -124
30 -16 -7 -88 12 -80 20 2 3 17 0 32 -6 15 -6 29 -9 32 -7 2 2 -42 23 -98 46
-56 23 -103 40 -105 38 -2 -2 25 -16 61 -32 36 -15 64 -29 62 -31 -8 -9 -347
149 -347 161 0 3 45 -17 100 -45 55 -27 103 -50 107 -50 5 1 -41 26 -102 58
-60 31 -123 66 -138 76 -15 10 -30 16 -33 13 -3 -3 8 -13 25 -22 17 -8 31 -18
31 -21 0 -6 -100 49 -143 78 -15 11 -25 23 -22 28 3 4 -11 17 -31 29 -41 24
-48 26 -38 8 5 -8 2 -8 -9 2 -20 16 -23 26 -4 15 7 -5 7 -2 -2 10 -8 9 -24 22
-35 28 l-21 11 20 -23 c17 -20 15 -20 -17 4 -21 16 -38 31 -38 33 0 3 8 -1 18
-8 12 -10 12 -8 -3 10 -11 13 -33 32 -50 44 l-30 20 30 -33 c20 -23 9 -16 -32
19 -35 29 -63 56 -63 59 0 3 15 -7 33 -24 l32 -29 -34 37 c-19 21 -39 34 -45
31 -6 -3 -8 -2 -3 2 8 9 -60 85 -77 85 -6 0 8 -19 29 -42 25 -27 18 -23 -18
12 -31 30 -57 56 -57 59 0 2 9 -4 20 -14 42 -38 17 3 -27 45 -26 25 -39 34
-28 20 l20 -25 -28 24 c-27 24 -36 38 -17 26 16 -10 12 11 -5 25 -8 7 -15 9
-15 5 0 -4 -7 -2 -15 5 -8 7 -15 17 -15 23 0 6 7 2 15 -9 12 -15 14 -16 9 -2
-3 10 2 37 11 62 9 24 14 50 10 57 -6 8 -4 10 5 4 10 -6 12 -4 7 9 -5 11 -3
15 5 10 8 -5 9 -2 5 9 -4 10 -2 16 5 14 6 -1 13 4 16 12 3 9 0 11 -8 6 -9 -6
-11 -4 -6 4 5 7 11 10 14 7 7 -7 42 24 42 37 0 5 -8 3 -17 -4 -15 -11 -15 -10
1 8 10 13 22 20 27 18 10 -7 125 124 121 139 -2 6 0 8 4 3 8 -8 44 21 44 36 0
5 -8 3 -17 -4 -16 -13 -17 -12 -4 4 8 9 16 15 19 12 7 -7 42 25 42 38 0 5 -8
3 -17 -4 -15 -11 -14 -10 1 9 21 24 31 29 20 9 -4 -6 1 -5 11 5 10 9 19 28 21
43 1 15 8 33 14 39 10 8 10 5 1 -14 -12 -24 -12 -24 5 -5 35 42 55 102 48 144
-7 41 7 58 20 25 9 -24 7 -31 -4 -14 -9 13 -10 13 -10 0 1 -22 54 -116 63
-112 5 2 21 -7 35 -21 39 -36 76 -57 124 -72 24 -8 34 -14 23 -14 -30 -1 -97
32 -138 69 -20 18 -37 28 -37 24 0 -13 61 -60 112 -86 66 -35 165 -32 238 7
72 39 165 128 156 150 -3 9 -2 14 4 10 17 -10 52 84 58 152 4 52 0 76 -23 138
-15 41 -31 75 -36 75 -5 0 -16 15 -24 33 -14 28 -14 30 0 13 8 -11 15 -24 15
-30 0 -5 3 -7 6 -4 8 9 -25 70 -35 63 -5 -2 -15 3 -22 13 -13 15 -12 16 4 3 9
-7 17 -9 17 -4 0 13 -35 45 -42 38 -2 -3 -18 10 -34 28 -28 31 -28 31 -1 8 15
-14 27 -19 27 -13 0 12 -37 37 -55 37 -5 1 -31 13 -57 28 -25 15 -75 34 -110
43 -62 14 -62 14 -13 10 43 -4 46 -3 25 6 -32 15 -188 15 -220 0 -21 -9 -18
-10 25 -6 l50 4 -61 -14 c-34 -8 -76 -22 -93 -30 -17 -9 -31 -14 -31 -11 0 3
19 15 43 25 23 11 35 20 27 20 -38 0 -230 -135 -230 -162 0 -6 24 12 53 39 29
27 64 55 77 62 l25 12 -25 -18 c-14 -10 -53 -44 -87 -76 -34 -32 -65 -58 -69
-57 -5 1 -10 -4 -13 -11 -2 -8 1 -9 10 -4 8 5 11 4 6 -1 -5 -5 -13 -9 -19 -9
-14 0 -65 -100 -73 -140 -4 -24 -3 -26 4 -10 7 14 8 7 3 -25 -4 -25 -7 -79 -7
-120 l0 -75 -35 -18 c-35 -18 -35 -18 -5 -12 26 4 27 4 11 -6 -33 -20 -137
-23 -179 -6 -20 9 -36 22 -35 29 2 6 -3 12 -10 13 -22 0 -32 28 -30 85 l1 55
6 -62 c3 -34 9 -64 13 -68 3 -4 4 20 1 52 -4 43 2 87 21 167 15 60 24 111 21
114 -3 3 -5 -3 -5 -13 0 -10 -2 -16 -5 -13 -4 3 -3 18 1 33 4 17 9 22 14 15
10 -16 73 161 65 182 -4 9 -2 25 5 35 9 15 10 14 4 -7 -12 -46 12 -7 45 72 32
79 38 104 20 78 -9 -12 -10 -12 -5 3 3 10 6 24 6 30 0 8 3 8 9 -1 5 -9 19 11
42 63 19 43 55 123 80 178 l45 102 48 13 c26 8 46 15 44 18 -3 2 -20 -1 -39
-6 -18 -6 -41 -10 -49 -9 -8 0 7 7 34 14 27 8 61 12 75 9 28 -5 176 60 168 73
-2 5 29 29 69 55 41 26 74 45 74 43 0 -3 -30 -25 -67 -51 -38 -25 -60 -44 -50
-40 23 8 145 94 154 109 4 7 -2 5 -13 -3 -10 -8 -3 3 15 23 19 20 37 37 40 37
2 0 -6 -11 -19 -25 -13 -14 -19 -25 -14 -25 6 0 23 14 40 32 16 17 23 27 15
23 -10 -6 -12 -4 -7 4 5 7 11 10 14 7 7 -8 62 44 62 57 0 6 -10 2 -22 -9 -13
-10 -10 -4 6 14 16 17 32 30 34 27 7 -6 32 15 32 27 0 5 -4 6 -10 3 -16 -10
-11 1 7 16 15 12 16 12 8 -1 -8 -13 -7 -13 8 -1 20 16 23 36 5 25 -8 -4 -10
-3 -5 2 5 5 14 9 20 9 18 0 118 196 114 222 -2 12 -1 20 3 18 9 -6 47 122 60
205 5 36 9 115 8 175 l-2 110 -6 -110 -6 -110 -2 108 c-2 82 -5 108 -14 105
-8 -3 -15 -34 -19 -84 l-5 -79 -4 80 -3 80 -7 -90 c-10 -121 -26 -192 -61
-278 -16 -39 -27 -78 -24 -86 3 -9 3 -12 -1 -9 -4 4 -24 -22 -45 -57 -42 -68
-46 -80 -26 -69 7 4 9 3 4 -2 -5 -5 -14 -9 -19 -9 -6 0 -13 -6 -16 -14 -3 -9
0 -11 8 -6 9 6 11 4 6 -4 -5 -7 -11 -10 -14 -7 -7 8 -52 -34 -52 -47 0 -6 10
-2 23 9 20 17 20 16 -2 -9 -14 -15 -27 -25 -29 -22 -7 6 -127 -108 -124 -117
1 -4 -13 -17 -31 -28 l-32 -22 30 26 c17 14 26 26 22 26 -14 0 -66 -43 -61
-51 2 -4 -1 -11 -7 -15 -8 -5 -9 -3 -4 6 4 7 4 11 -1 8 -166 -79 -262 -133
-167 -93 20 8 38 13 40 11 5 -5 -103 -46 -120 -45 -7 0 -3 4 8 9 l20 9 -20 1
c-11 2 -23 2 -27 1 -4 0 -5 6 -1 15 4 11 8 12 13 4 4 -6 19 19 35 57 53 129
108 258 151 358 43 99 57 144 29 95 -8 -14 -14 -19 -15 -12 0 6 9 21 20 32 20
20 72 117 85 160 17 53 186 414 261 558 36 67 62 128 58 134 -4 7 -3 8 4 4 6
-3 16 2 21 13 14 26 14 34 -1 25 -7 -4 -8 -3 -4 5 4 6 11 9 16 6 5 -3 20 14
34 38 29 49 32 62 14 51 -8 -4 -10 -3 -5 2 5 5 14 9 20 9 5 0 12 6 15 14 3 9
0 11 -9 6 -8 -5 -11 -4 -6 1 5 5 14 9 19 9 6 0 38 48 71 108 51 92 60 116 63
168 2 34 6 65 10 68 4 3 4 -12 1 -34 -5 -32 -4 -36 5 -21 17 31 23 151 8 186
-29 71 -95 88 -167 44z m-1341 -832 c-13 -4 45 -7 128 -7 83 0 141 3 128 7
-13 4 -5 5 17 2 22 -3 47 -10 55 -15 10 -6 5 -7 -15 -3 -17 3 4 -12 50 -35 89
-46 89 -46 79 -28 -4 7 -3 9 2 4 5 -5 8 -12 7 -15 -3 -10 99 -112 108 -107 4
3 6 -3 5 -13 0 -9 5 -16 12 -14 8 1 10 -2 7 -8 -4 -6 2 -33 14 -59 l20 -48
-33 -79 c-18 -44 -43 -101 -56 -127 -12 -27 -19 -55 -16 -63 3 -9 1 -12 -4 -9
-6 3 -10 4 -10 1 0 -2 -3 -13 -6 -23 -5 -15 -4 -15 5 -3 8 11 11 11 11 2 0 -7
-6 -15 -14 -18 -8 -3 -19 -18 -26 -33 -13 -32 -78 -66 -150 -80 -45 -9 -45 -9
-10 -11 31 -3 29 -4 -15 -9 l-50 -6 -3 -74 -3 -74 58 6 c32 3 67 8 78 12 19 6
19 6 2 -5 -11 -7 -45 -14 -78 -17 -32 -3 -56 -9 -54 -13 3 -5 13 -7 23 -5 9 2
34 6 54 9 36 4 37 4 27 -21 -5 -14 -7 -28 -4 -31 3 -3 5 1 5 8 0 7 2 11 5 8 8
-8 -16 -69 -25 -63 -4 3 -24 -33 -44 -79 -37 -87 -46 -120 -21 -76 8 14 14 19
15 13 0 -7 -9 -22 -19 -32 -11 -11 -27 -34 -36 -50 -18 -36 -28 -37 -126 -11
-99 26 -111 24 -24 -5 39 -13 63 -24 54 -24 -20 -1 -152 44 -176 59 -17 11
-16 11 2 5 11 -4 27 -9 35 -12 8 -3 -19 14 -60 38 -41 23 -84 43 -95 44 -11 1
-19 6 -18 11 2 12 -37 54 -50 54 -6 0 0 -12 14 -27 15 -19 11 -16 -13 6 -21
19 -36 37 -33 40 7 7 -26 41 -35 36 -4 -2 -18 8 -31 23 -13 14 -16 20 -6 13 9
-7 17 -9 17 -4 0 13 -35 44 -42 37 -3 -3 -9 0 -14 7 -4 8 -3 10 4 5 15 -9 15
-1 1 25 -5 11 -14 17 -19 14 -5 -3 -12 0 -16 6 -4 8 -3 9 4 5 7 -4 12 -4 12 0
0 10 -43 79 -52 82 -5 2 -6 7 -3 12 3 5 -7 46 -22 92 -39 119 -37 224 4 333
45 120 46 123 24 85 -24 -41 -28 -33 -6 11 9 16 20 27 25 24 5 -3 18 8 29 24
26 36 27 48 4 30 -16 -13 -17 -12 -4 4 8 9 16 15 19 12 7 -7 42 25 42 38 0 6
-9 2 -20 -8 -11 -10 -20 -16 -20 -14 0 3 17 21 37 40 21 18 29 24 19 12 -26
-31 -5 -29 24 2 13 14 20 25 16 25 -5 0 -3 6 4 14 6 8 17 13 25 10 7 -3 16 0
21 7 5 8 3 10 -7 5 -8 -4 -5 0 6 9 23 19 110 65 122 65 4 -1 -18 -15 -51 -31
-32 -17 -56 -32 -54 -35 3 -2 36 12 74 31 38 19 62 35 54 36 -20 2 60 28 85
27 17 0 17 -1 -3 -6z m1076 -2087 c28 -9 54 -20 57 -25 3 -5 -10 -3 -29 5 -59
25 -65 17 -8 -10 62 -29 66 -30 56 -12 -4 7 -3 9 2 4 5 -5 9 -12 9 -16 0 -10
81 -81 87 -76 3 3 13 -5 24 -17 19 -22 19 -22 0 -8 -11 8 -17 11 -15 5 16 -36
33 -65 38 -65 3 0 5 -37 5 -82 l-1 -83 7 75 6 75 2 -70 c1 -38 -3 -77 -8 -85
-5 -8 -10 -10 -10 -5 0 9 -40 -72 -40 -82 0 -2 6 -1 13 3 7 4 9 3 4 -2 -5 -5
-10 -7 -11 -4 -4 7 -36 -21 -36 -32 0 -5 6 -6 13 -2 6 4 1 -5 -12 -19 -13 -15
-27 -24 -31 -22 -5 3 -33 -7 -64 -21 -77 -35 -160 -35 -228 0 -27 14 -46 21
-43 16 4 -6 23 -19 43 -30 20 -10 32 -19 26 -20 -13 0 -102 58 -111 73 -4 7 1
6 10 -2 22 -18 21 -9 -3 31 -24 39 -25 80 -5 137 8 25 10 39 4 35 -18 -11 7
31 28 47 16 12 16 11 -1 -9 -11 -12 -15 -22 -9 -22 14 0 44 35 37 43 -4 3 5
12 20 18 17 8 25 18 21 27 -3 7 -8 25 -11 38 -3 13 -8 24 -11 24 -10 0 -49
-24 -73 -44 -14 -11 -12 -7 5 9 17 17 40 35 51 42 18 12 18 12 -3 5 -28 -9
-113 -79 -113 -93 0 -6 5 -7 12 -3 7 4 8 3 4 -5 -4 -6 -11 -9 -16 -6 -10 6
-30 -26 -30 -47 0 -10 3 -9 11 2 9 12 10 12 5 -3 -3 -10 -6 -43 -6 -73 0 -30
-3 -54 -7 -54 -5 0 -7 26 -6 57 1 40 -1 49 -5 28 -4 -16 -13 -31 -20 -33 -8
-1 -11 2 -7 7 3 6 -6 18 -20 27 -24 16 -29 16 -58 2 -39 -19 -127 -95 -127
-110 0 -6 27 14 59 45 45 44 67 57 90 57 16 0 32 -4 35 -8 2 -4 -11 -6 -29 -4
-30 4 -42 -3 -92 -50 -32 -29 -69 -62 -83 -73 -25 -20 -25 -20 -9 0 8 11 17
37 18 58 4 59 38 166 66 208 27 41 31 54 15 44 -18 -11 -11 1 12 21 22 19 23
19 8 -1 -8 -11 5 -2 28 19 22 22 39 43 36 47 -2 4 8 16 23 27 35 24 65 38 38
18 -56 -42 -54 -44 12 -9 43 23 67 41 60 45 -15 10 -2 10 143 11 72 0 104 2
85 7 -21 5 -24 8 -9 9 11 0 43 -6 72 -14z m-675 -1833 c22 -13 36 -26 33 -29
-7 -8 33 -53 47 -53 6 0 2 10 -9 23 -10 12 8 -3 40 -33 31 -30 67 -68 78 -85
l20 -30 -21 24 c-25 28 -27 20 -5 -14 9 -14 20 -23 24 -20 5 3 12 0 16 -6 5
-8 3 -9 -6 -4 -8 5 -11 3 -8 -6 3 -8 10 -14 16 -14 5 0 14 -4 19 -9 5 -5 2 -6
-6 -1 -9 5 -12 3 -9 -6 3 -8 10 -14 16 -14 5 0 14 -4 19 -9 5 -5 3 -6 -4 -2
-18 10 -17 4 14 -67 14 -34 35 -89 45 -122 11 -36 16 -46 13 -25 -3 24 -2 30
5 19 5 -9 5 -61 0 -130 -4 -63 -6 -116 -4 -118 2 -2 4 6 4 19 0 13 3 21 6 17
10 -10 -5 -58 -16 -52 -6 3 -10 1 -10 -6 0 -6 -13 -38 -30 -71 -32 -63 -39
-94 -14 -62 14 18 15 18 4 -4 -6 -12 -15 -20 -19 -18 -4 3 -18 -8 -29 -24 -27
-35 -28 -47 -4 -29 14 11 13 9 -2 -9 -11 -12 -22 -20 -24 -17 -8 8 -72 -57
-67 -66 7 -10 -50 -56 -99 -80 -43 -20 -33 -12 41 34 25 15 43 31 39 34 -3 4
-16 -3 -29 -14 -28 -26 -116 -71 -187 -95 -51 -17 -52 -18 -15 -13 29 3 34 2
19 -4 -12 -5 -43 -12 -70 -15 -30 -3 -37 -2 -19 2 17 4 -28 7 -105 7 -78 0
-122 -3 -105 -7 21 -5 17 -6 -15 -2 -68 7 -182 67 -248 131 -31 30 -49 50 -39
43 10 -7 17 -8 17 -2 0 13 -25 33 -32 26 -3 -3 -9 0 -14 7 -5 8 -3 10 6 4 8
-5 11 -3 8 6 -3 8 -10 14 -16 14 -5 0 -14 4 -19 9 -5 5 -2 6 6 1 9 -5 12 -3 9
6 -3 8 -11 13 -17 11 -7 -1 -10 2 -6 8 8 12 -4 52 -13 46 -4 -2 -7 8 -8 22 -1
15 -5 47 -11 72 -9 44 -4 85 19 143 9 24 15 27 57 27 52 0 147 15 200 32 24 8
30 13 20 19 -11 7 -11 9 2 9 9 0 41 13 72 28 61 31 69 24 9 -8 -20 -10 -32
-19 -27 -19 18 -1 90 44 90 56 0 6 4 15 9 20 5 5 6 3 2 -4 -11 -19 9 -16 25 4
12 15 12 16 -1 8 -11 -6 61 77 99 115 3 3 -3 -8 -13 -25 l-17 -30 25 28 c27
29 35 54 14 41 -7 -4 -8 -3 -4 5 4 6 11 9 16 6 4 -3 20 15 35 40 20 35 27 63
30 117 4 68 14 107 16 57 1 -45 16 10 24 88 6 59 10 71 23 66 11 -5 13 -3 7 7
-9 14 -8 14 58 -28z"/>
<path d="M3492 5103 c-2 -91 -4 -102 -22 -108 -10 -3 -31 -20 -45 -36 -20 -24
-23 -34 -14 -50 5 -11 14 -17 20 -14 5 4 8 1 7 -7 -2 -8 8 -14 25 -16 37 -5
87 45 87 87 0 16 4 32 9 35 5 4 7 -2 4 -13 -4 -15 0 -18 21 -14 17 4 28 15 35
36 18 51 13 75 -26 115 -20 20 -28 26 -17 12 l19 -25 -28 24 c-27 24 -36 38
-17 26 6 -3 10 -1 10 4 0 6 -4 11 -10 11 -5 0 -9 5 -7 12 1 6 -6 14 -15 16
-16 3 -18 -7 -20 -100 l-2 -103 -6 105 -6 105 -2 -102z"/>
<path d="M3671 853 c1 -5 0 -55 -2 -113 l-3 -105 -6 100 -6 100 -2 -97 c-1
-54 -6 -98 -11 -98 -18 0 -71 -52 -71 -69 0 -22 40 -61 62 -61 38 0 102 80 77
96 -13 7 -11 64 2 64 5 0 7 5 4 10 -10 16 1 11 16 -7 10 -11 10 -14 2 -9 -10
5 -13 -2 -13 -26 0 -36 23 -78 36 -65 4 4 2 7 -5 7 -8 0 -7 6 4 17 11 10 15
28 13 49 -2 18 0 30 5 27 5 -3 7 -24 4 -47 -4 -29 -3 -36 4 -24 5 10 8 45 5
79 -3 56 -7 65 -42 98 -31 29 -34 30 -14 6 l25 -30 -27 24 c-15 13 -30 36 -33
52 -4 16 -11 29 -16 29 -5 0 -8 -3 -8 -7z"/>
<path d="M3816 5951 c-25 -27 -34 -70 -24 -119 5 -31 4 -49 -6 -65 -8 -14 -13
-44 -11 -80 1 -36 -1 -54 -6 -45 -7 11 -9 11 -9 0 0 -22 82 -100 99 -95 13 5
13 3 -1 -8 -9 -8 -19 -23 -22 -34 -3 -12 -4 -9 -2 7 2 15 -1 25 -5 22 -17 -10
-9 -51 14 -72 13 -12 35 -22 50 -22 37 0 47 19 51 101 2 25 10 57 19 70 26 36
21 67 -17 105 -30 30 -52 40 -79 35 -5 -1 -5 3 -2 9 4 6 10 9 13 6 3 -3 12 3
19 14 19 28 19 90 -1 128 -18 35 -29 42 -20 15 4 -14 2 -13 -7 2 -8 11 -14 24
-14 29 0 18 -22 16 -39 -3z"/>
<path d="M385 5849 c19 -5 7 -6 -36 -2 -41 3 -69 1 -73 -5 -4 -7 7 -9 31 -7
38 5 38 4 -4 -6 l-43 -10 -2 -82 -2 -82 -6 85 -6 85 -2 -82 c-2 -82 -2 -83
-39 -117 l-38 -34 24 -26 c31 -33 58 -33 93 1 27 25 28 31 28 115 0 68 3 88
14 88 7 0 28 3 45 6 l31 7 0 -47 c0 -40 -5 -50 -37 -80 -36 -33 -37 -36 -21
-52 16 -16 17 -16 12 7 -5 24 -4 24 5 2 11 -25 31 -29 64 -11 20 10 21 10 8
-5 -7 -10 -25 -18 -40 -18 -25 -2 -25 -2 -2 -6 16 -3 32 4 52 23 28 27 29 30
29 135 l0 108 -37 10 c-21 6 -47 10 -58 10 -14 -1 -10 -4 10 -10z"/>
<path d="M2136 5278 c-9 -5 -13 -14 -10 -20 4 -7 2 -8 -5 -4 -7 4 -18 -4 -28
-22 -9 -16 -30 -38 -45 -48 -15 -11 -28 -23 -28 -27 0 -5 12 1 26 12 15 12 34
21 43 21 9 -1 2 -7 -15 -14 -18 -8 -35 -19 -38 -25 -4 -5 -13 -8 -21 -5 -16 6
-30 -48 -22 -87 3 -15 5 -8 6 18 0 23 5 44 9 47 4 2 5 -19 2 -48 -6 -59 -4
-76 12 -76 6 0 5 8 -3 18 -13 15 -12 16 3 3 13 -10 15 -18 8 -31 -21 -40 -11
-72 36 -118 42 -39 51 -44 83 -39 27 3 43 -1 60 -14 39 -32 94 -25 141 17 22
20 40 43 40 50 0 8 6 14 13 14 30 0 87 81 87 122 0 27 -27 71 -40 63 -17 -11
-28 20 -19 55 l9 35 -5 -37 c-2 -21 -1 -40 3 -42 9 -5 13 42 6 72 -3 14 -9 20
-16 16 -7 -5 -9 -2 -5 8 14 38 -107 102 -128 68 -4 -7 3 -9 22 -5 l28 6 -30
-14 c-27 -13 -32 -12 -56 7 -15 12 -25 23 -23 25 2 2 13 -4 24 -14 11 -10 20
-13 20 -7 0 6 -5 14 -11 18 -17 10 -115 12 -133 2z"/>
<path d="M4555 4049 c-49 -28 -61 -47 -60 -98 0 -27 -4 -47 -9 -44 -4 3 -6 22
-2 42 4 25 2 31 -4 21 -5 -8 -10 -25 -10 -37 0 -19 -6 -23 -28 -23 -18 0 -43
-12 -66 -33 -31 -26 -39 -40 -43 -79 -5 -44 -3 -50 30 -83 19 -19 41 -35 48
-35 7 0 5 6 -7 14 -17 13 -15 13 19 3 29 -9 33 -13 18 -15 -26 -4 -51 -50 -51
-91 0 -36 48 -95 88 -108 31 -11 77 -2 77 14 0 28 17 22 58 -21 39 -41 48 -46
88 -46 39 0 50 5 81 38 34 34 44 60 40 104 -1 9 -8 18 -14 21 -7 2 -1 2 13 0
15 -2 43 3 63 11 20 8 34 11 31 6 -3 -5 -24 -15 -45 -21 -22 -7 -38 -14 -36
-17 12 -11 79 23 102 53 42 56 34 108 -26 159 -30 25 -30 26 -15 55 26 51 19
79 -29 127 -49 49 -81 56 -130 26 l-29 -18 -36 38 c-39 41 -84 55 -116 37z"/>
<path d="M1516 3643 c-63 -17 -136 -93 -136 -141 0 -12 14 -37 31 -57 26 -29
37 -35 68 -33 l36 1 -36 4 c-22 3 -44 13 -55 26 -19 22 -19 22 1 5 11 -9 40
-18 64 -19 35 -3 47 1 62 20 11 13 19 29 19 36 0 20 -40 66 -67 76 -13 5 -21
13 -18 19 7 12 85 13 103 1 7 -4 -9 -7 -40 -6 -34 2 -39 1 -13 -2 58 -6 65
-16 65 -93 0 -51 -6 -78 -25 -116 -29 -57 -29 -58 -12 -48 7 4 9 3 4 -2 -5 -5
-14 -9 -20 -9 -7 -1 -11 -7 -9 -14 1 -7 -1 -10 -6 -7 -5 3 -20 -7 -33 -22 -18
-20 -19 -23 -4 -12 20 15 20 14 1 -8 -20 -23 -32 -30 -21 -12 10 17 -12 11
-26 -7 -12 -14 -12 -16 1 -9 8 4 6 0 -5 -9 -11 -9 -29 -21 -40 -26 -15 -8 -13
-4 5 11 14 12 18 18 10 14 -23 -11 -50 -36 -50 -46 0 -5 4 -7 9 -4 5 4 11 1
13 -5 3 -8 14 -7 36 5 18 9 32 14 32 11 0 -2 -17 -13 -37 -24 -21 -11 -34 -20
-29 -21 36 -1 263 151 275 184 2 6 -14 -5 -35 -24 l-39 -35 34 37 c19 21 37
35 41 33 12 -8 33 24 26 40 -3 8 -2 14 2 14 4 -1 9 0 12 1 20 8 39 6 37 -3 -4
-21 35 -19 59 4 42 39 27 76 -31 75 -21 -1 -33 -8 -42 -26 -14 -28 -16 -24
-13 40 2 56 6 63 31 50 13 -8 25 -7 39 0 11 6 20 8 20 6 0 -15 -41 -26 -60
-16 -18 10 -20 8 -19 -27 2 -28 3 -31 6 -12 3 21 8 26 24 22 26 -7 69 33 69
63 0 22 -37 54 -63 54 -8 0 -21 -8 -28 -17 -11 -15 -11 -16 1 -5 19 17 45 15
61 -5 13 -15 12 -15 -7 -3 -13 8 -28 10 -40 5 -33 -14 -58 -12 -81 8 -11 10
-38 25 -60 32 -21 8 -30 14 -20 15 23 0 55 -16 85 -43 12 -11 22 -15 22 -9 0
6 -20 23 -45 38 -45 26 -103 37 -139 27z"/>
<path d="M5167 2442 c-15 -33 -27 -62 -27 -66 0 -4 -16 -42 -36 -86 -35 -76
-37 -78 -62 -69 -36 14 -71 3 -109 -34 -34 -32 -44 -77 -20 -94 24 -17 116
-16 145 2 26 17 26 17 10 -1 -10 -10 -39 -21 -65 -25 l-48 -6 42 -2 c31 -1 49
5 70 23 34 28 98 159 89 181 -3 8 -2 15 3 15 9 0 20 22 67 135 37 86 42 104
18 65 -14 -23 -14 -23 -9 -2 5 16 2 22 -9 22 -9 0 -16 -6 -16 -12 0 -10 -2
-10 -9 0 -5 9 -16 -6 -34 -46z"/>
<path d="M760 1140 c-11 -7 -5 -8 20 -5 32 5 32 4 -8 -9 -23 -8 -48 -18 -55
-23 -7 -4 -4 0 6 10 11 9 15 17 9 17 -6 0 -22 -15 -36 -32 -32 -41 -33 -42
-73 -74 -42 -33 -61 -91 -43 -133 7 -17 17 -31 22 -31 6 0 5 7 -2 15 -23 28
-6 21 23 -9 16 -16 22 -26 14 -23 -17 6 -27 -12 -27 -50 0 -17 15 -41 45 -71
41 -41 48 -44 83 -40 28 4 44 1 61 -13 14 -12 39 -19 63 -19 34 0 46 6 77 39
51 54 66 74 64 83 -2 4 4 5 12 2 20 -8 55 53 55 97 0 23 -8 46 -21 60 -11 13
-17 18 -13 10 5 -9 3 -12 -4 -7 -9 5 -9 13 -1 27 13 25 8 74 -8 74 -6 0 -15 4
-20 9 -5 5 -3 6 5 2 20 -12 14 9 -10 31 -38 34 -68 45 -103 39 -19 -4 -36 -2
-40 3 -3 6 -13 7 -22 4 -10 -4 -14 -2 -10 4 13 20 -37 30 -63 13z"/>
<path d="M4864 772 c-38 -32 -54 -61 -54 -96 0 -22 -4 -26 -31 -26 -48 0 -109
-65 -109 -116 0 -33 7 -45 53 -88 28 -27 47 -46 40 -42 -16 9 -33 -25 -33 -66
0 -36 25 -82 40 -73 5 3 12 0 16 -6 5 -8 3 -9 -7 -4 -12 8 -12 6 0 -8 13 -17
37 -25 27 -9 -2 4 12 6 33 4 29 -3 45 2 72 23 l34 27 -33 -31 c-18 -17 -30
-31 -27 -31 9 0 49 22 55 30 3 4 15 -9 28 -29 l23 -36 -26 28 c-14 15 -25 24
-25 19 0 -6 16 -24 35 -41 52 -45 95 -43 146 8 30 30 39 46 39 73 0 32 3 35
29 36 39 1 86 36 106 79 19 39 15 68 -16 107 -23 30 -79 62 -79 46 0 -5 -5
-10 -12 -10 -6 0 -4 8 7 20 9 10 22 18 29 17 13 -2 10 66 -5 97 -10 21 -10 21
5 2 21 -26 21 -7 0 22 -18 26 -65 52 -93 52 -27 0 -72 -21 -66 -31 3 -4 0 -11
-7 -15 -7 -4 -10 -3 -6 1 5 5 -12 28 -36 52 -55 54 -102 59 -152 15z"/>
</g>
</svg>
